<svg viewBox="0 0 36 36" xmlns="http://www.w3.org/2000/svg">
  <path d="M18 8.94751C18 6.95839 18.7902 5.05073 20.1967 3.64421C21.6032 2.23769 23.5109 1.44751 25.5 1.44751C30.75 1.44751 33 6.69751 33 10.8225C33 21.75 22.6275 28.7625 19.1325 30.8175C18.7905 31.015 18.4025 31.119 18.0075 31.119C17.6125 31.119 17.2245 31.015 16.8825 30.8175C13.3725 28.7625 3 21.75 3 10.8225C3 6.67501 5.25 1.44751 10.5 1.44751C11.4849 1.44751 12.4602 1.6415 13.3701 2.01841C14.2801 2.39532 15.1069 2.94777 15.8033 3.64421C16.4997 4.34065 17.0522 5.16744 17.4291 6.07738C17.806 6.98733 18 7.9626 18 8.94751Z" stroke="currentColor" stroke-width="2" stroke-linecap="round" stroke-linejoin="round"/>
</svg>
