<svg xmlns="http://www.w3.org/2000/svg" width="240" height="240" viewBox="0 0 512 512"><path fill="currentColor" d="M239 101v38l-10.375-.125C192.52 138.78 159.468 149.865 133 175l-1.582 1.499C113.598 193.743 102.11 216.878 97 241l-.68 3.16c-5.59 31.516.923 66.62 18.88 93.336A192 192 0 0 0 125 350l2.46 2.906C149.187 377.917 180.17 392.33 213 395c34.643 2.102 68.259-8.96 94.466-31.813C331.897 341.309 347.606 310.895 350 278c1.63-32.876-6.676-62.314-26-89l-2.12-1.957c-2.942-4.761-2.372-9.423-2.27-14.906.005-1.147.01-2.295.017-3.476.022-3.659.072-7.316.123-10.974q.03-3.723.055-7.447.067-9.12.195-18.24 2.136 1.397 4.266 2.803l2.4 1.576c3.492 2.425 6.569 5.198 9.647 8.121l1.94 1.834c30.658 29.448 49.947 70.42 50.95 113.186.384 35.522-7.436 66.15-25.283 96.87A73 73 0 0 0 362 360l1.55 1.079c9.2 6.407 18.38 12.834 27.45 19.421a1204 1204 0 0 0 19 13.5 1630 1630 0 0 1 19.875 14.063l2.215 1.587c12.65 9.14 20.763 19.057 24.223 34.6 1.933 12.478-.204 24.515-6.883 35.281-8.182 11.113-18.722 18.94-32.43 21.469-15.404 1.596-28.626-1.322-41-11-6.857-6.299-11.894-13.99-17.055-21.668-3.005-4.457-6.152-8.803-9.32-13.144a729 729 0 0 1-13.437-19.125C329.43 426.128 322.45 416.43 315 407l-2.973 1.723c-40.316 23.165-86.458 32.255-132.144 20.327-27.101-7.587-52.253-20.84-72.416-40.623-1.535-1.493-3.1-2.95-4.67-4.407-30.734-29.005-46.048-71.112-47.67-112.654-1.195-44.466 15.001-86.41 45.37-118.774 8.456-8.804 17.379-16.725 27.503-23.592l2.57-1.766C162.473 106.093 200.995 96.777 239 101"/><path fill="currentColor" d="m290.375 10.75 2.773-.078c6.413.738 10.527 4.537 14.977 8.828 3.964 3.793 3.964 3.793 8.242 7.219L318 28v2l1.734.781c2.477 1.333 4.4 2.87 6.516 4.719l2.14 1.844C330 39 330 39 330 41l1.797.8c2.283 1.244 3.677 2.504 5.453 4.388 2.459 2.531 4.96 4.935 7.625 7.25l2.012 1.757a182 182 0 0 0 4.445 3.672c6.268 5.176 10.712 10.5 12.106 18.711.29 5.903-.93 10.642-4.438 15.422-4.725 5.038-9.263 7.988-16.25 8.375-10.498-.402-19.901-7.833-28.687-13.062l-5.963-3.527q-1.842-1.09-3.683-2.183C302.301 81.346 300.202 80.1 298 79l.011 3.082q.135 37.185.196 74.371c.02 11.989.049 23.978.095 35.966q.06 15.682.074 31.363c.006 5.531.018 11.062.047 16.593q.039 7.824.03 15.648 0 2.858.024 5.714c.11 14.405-1.319 27.529-8.164 40.513l-1.034 2.004c-9.468 17.702-25.696 30.565-44.69 36.777-21.03 5.676-42.255 2.98-61.437-7.183A74 74 0 0 1 171 325l-2.23-1.95c-15.29-14.237-22.62-33.43-23.73-54.023-.484-21.145 7.224-40.423 21.686-55.847 13.935-14.238 32.441-22.134 52.278-22.602 15.118-.075 27.406 2.627 40.996 9.422l.004-2.565q.056-30.924.18-61.848c.04-9.97.072-19.94.087-29.91q.019-13.038.084-26.077c.022-4.6.038-9.2.037-13.8q0-6.503.05-13.006.012-2.379.004-4.758c-.03-9.862.491-18.386 6.413-26.622 7.009-6.632 13.74-10.5 23.516-10.664"/></svg>